<svg id="Layer_1" data-name="Layer 1" xmlns="http://www.w3.org/2000/svg" viewBox="0 0 1500 1500"><defs><style>.cls-1{fill:#8e8e8e;}</style></defs><path class="cls-1" d="M613.73,950.92H882.05a74.31,74.31,0,0,0,74.31-74.31V623.25a38.89,38.89,0,0,0-38.9-38.9h0a38.9,38.9,0,0,0-38.9,38.9V865.63a9.64,9.64,0,0,1-9.64,9.65H630.53a13.3,13.3,0,0,1-13.3-13.3h0V623.25a38.9,38.9,0,0,0-38.91-38.9h0a38.9,38.9,0,0,0-38.9,38.9V876.61a74.31,74.31,0,0,0,74.31,74.31Z"/><path class="cls-1" d="M748.64,472.63c-30.38-14.16-34.92-13.28-59.15-13.23q-113.11.21-226.24,0c-2.41,0-4.83,0-7.24.07-43.08,1.88-76.4,32.36-81.66,75.18A237.77,237.77,0,0,0,373,563.54q-.21,135.75-.18,271.5c0,50.68-.07,101.37.16,152.05,0,9,.44,18.2,2.41,26.92,3.88,17.22,19.74,27.74,38.05,26.52A35.81,35.81,0,0,0,446.61,1008c.48-5.4.32-10.85.32-16.28q0-162,0-324,0-53.4,0-106.79c0-4.82-.08-9.68.38-14.46.78-8,4.94-12,12.74-12.59,3.6-.29,7.23-.25,10.85-.25h219c3,0,6-.06,9,.11,10.91.61,14.85,4.36,15.68,15.67C714.34,500.77,748.64,472.63,748.64,472.63Z"/><path class="cls-1" d="M1127.2,649.46c0-36.19-.25-72.39-.17-108.59.09-37.78-30.8-72-65.81-78.09a149.42,149.42,0,0,0-25.1-2.65q-114.93-.3-229.87,0A184.15,184.15,0,0,0,781.18,462c-12.12,2.1-21,5.24-32.54,10.6,0,0-40.31,29.26-34,76.79.48,6.6.32,13.26.32,19.9q0,102.26,0,204.53c0,6.63.42,13.26.62,19.88a26.1,26.1,0,0,0,5.6,15c10.1,13.43,21.56,17.38,40.13,13.61,14.12-2.87,24.09-16.14,25.11-31.79.43-6.61.28-13.27.28-19.9q0-103.17,0-206.35a178.43,178.43,0,0,1,.52-18.07c.8-7.75,5.22-11.88,12.91-12.64,4.19-.41,8.43-.48,12.65-.48q109.5,0,219,0a108.86,108.86,0,0,1,12.65.51,10.7,10.7,0,0,1,9.17,7.73,40.9,40.9,0,0,1,1.83,10.6c.31,6.62.19,13.27.19,19.91q0,200,0,400c0,10.86-.18,21.73.26,32.58a40.91,40.91,0,0,0,2.83,14,35.41,35.41,0,0,0,38.17,21.22c16.67-2.66,28.81-16.18,29.93-33.66.38-6,.24-12.06.24-18.1Q1127.21,818.7,1127.2,649.46Z"/></svg>